<?xml version="1.0" standalone="no"?>
<!DOCTYPE svg PUBLIC "-//W3C//DTD SVG 20010904//EN"
 "http://www.w3.org/TR/2001/REC-SVG-20010904/DTD/svg10.dtd">
<svg version="1.0" xmlns="http://www.w3.org/2000/svg"
 width="500.000000pt" height="500.000000pt" viewBox="0 0 500.000000 500.000000"
 preserveAspectRatio="xMidYMid meet">
<metadata>
Created by potrace 1.14, written by Peter Selinger 2001-2017
</metadata>
<g transform="translate(0.000000,500.000000) scale(0.100000,-0.100000)"
fill="#000000" stroke="none">
<path d="M2279 4656 c-2 -2 -36 -7 -75 -10 -80 -7 -72 -6 -214 -36 -440 -93
-857 -343 -1173 -705 -233 -266 -429 -670 -486 -1000 -6 -33 -13 -73 -16 -90
-26 -149 -26 -503 0 -650 21 -115 29 -155 45 -215 110 -421 328 -778 656
-1077 289 -263 679 -454 1054 -517 47 -8 101 -18 120 -21 19 -4 127 -8 240
-10 180 -3 237 0 358 19 15 2 47 7 72 11 224 34 568 170 779 310 286 189 517
427 688 710 7 11 16 27 20 35 4 8 21 40 38 70 92 163 200 488 220 665 4 33 9
67 10 75 23 125 23 385 1 549 -54 398 -199 745 -444 1061 -97 124 -298 323
-396 389 -12 8 -23 18 -26 21 -20 25 -220 145 -335 201 -118 58 -337 140 -410
155 -11 2 -29 6 -40 8 -42 9 -182 36 -215 42 -39 6 -465 16 -471 10z m411
-151 c546 -60 1060 -356 1397 -805 93 -124 202 -320 257 -465 15 -38 31 -79
35 -90 31 -71 77 -283 95 -429 12 -103 14 -381 2 -436 -3 -14 -7 -45 -10 -70
-28 -250 -154 -587 -307 -820 -56 -85 -85 -124 -169 -225 -39 -47 -192 -197
-234 -230 -21 -16 -44 -35 -50 -40 -72 -66 -310 -205 -466 -273 -50 -21 -210
-74 -280 -93 -282 -72 -656 -78 -931 -14 -36 9 -75 17 -87 20 -127 24 -434
162 -587 264 -172 114 -358 281 -463 416 -53 67 -145 199 -168 240 -135 240
-220 466 -254 685 -7 41 -15 84 -17 95 -3 11 -7 115 -8 230 -2 181 0 229 20
345 28 167 46 236 95 372 196 538 601 959 1145 1190 138 59 395 122 545 133
47 4 87 9 89 11 5 5 286 -4 351 -11z"/>
<path d="M2268 4409 c-123 -13 -162 -20 -223 -36 -33 -8 -71 -17 -85 -19 -75
-13 -352 -126 -437 -178 -114 -69 -238 -157 -310 -217 -230 -196 -416 -454
-536 -744 -27 -65 -86 -253 -93 -294 -3 -14 -9 -48 -14 -76 -29 -149 -41 -399
-26 -525 3 -25 8 -63 11 -85 2 -22 7 -53 10 -70 21 -114 28 -145 42 -188 8
-26 16 -53 17 -60 1 -7 7 -25 13 -42 22 -60 26 -70 28 -75 2 -3 6 -16 10 -29
33 -100 198 -381 290 -491 87 -105 192 -208 288 -285 21 -16 44 -35 51 -41 33
-31 174 -119 267 -168 172 -90 365 -157 534 -185 39 -6 95 -15 125 -21 59 -10
448 -7 490 4 14 3 43 8 66 12 39 5 111 20 204 43 112 28 404 156 451 197 8 8
19 14 23 14 16 0 164 106 251 180 73 62 206 202 266 280 70 90 139 194 139
209 0 5 4 11 8 13 11 4 84 150 112 223 13 33 27 65 31 70 4 6 10 23 13 38 2
15 7 30 10 35 6 10 43 147 50 187 3 17 8 39 10 50 2 11 7 45 11 75 4 30 9 64
12 75 3 11 6 90 8 175 6 313 -61 609 -200 890 -24 50 -54 104 -65 120 -11 15
-20 31 -20 34 0 3 -16 30 -36 59 -252 361 -569 606 -965 748 -60 21 -124 41
-142 44 -17 3 -58 13 -90 21 -138 35 -433 52 -599 33z m245 -254 c35 -93 37
-94 34 -21 l-2 70 43 1 c57 1 66 -6 58 -46 -11 -55 -14 -89 -15 -185 l-1 -90
-47 2 c-64 2 -63 2 -64 17 0 6 -11 35 -24 62 l-25 50 6 -62 6 -63 -49 0 c-27
0 -52 2 -55 5 -3 4 -2 23 3 43 11 50 17 202 9 207 -6 4 -7 25 -1 58 0 4 24 7
53 5 l52 -3 19 -50z m-212 33 c0 -7 2 -38 3 -68 3 -57 16 -163 21 -168 2 -2
-1 -16 -7 -32 -24 -69 -183 -86 -217 -22 -5 9 -12 38 -15 63 -3 25 -15 79 -26
120 -10 40 -17 75 -16 77 2 1 28 7 57 11 62 10 69 5 67 -49 -2 -60 23 -181 38
-187 8 -3 18 -3 21 1 9 9 -17 144 -38 198 l-19 48 23 4 c12 3 31 7 42 9 40 9
65 7 66 -5z m570 -30 c63 -16 78 -24 93 -49 17 -28 17 -33 -4 -126 -34 -148
-53 -159 -210 -124 -73 16 -75 17 -73 45 1 16 7 32 12 35 11 7 53 170 46 181
-3 4 -2 22 1 39 7 35 -1 35 135 -1z m-881 -98 c7 -26 5 -29 -34 -44 -37 -15
-42 -15 -52 -1 -24 33 -48 2 -25 -34 6 -10 13 -11 29 -2 30 16 37 14 50 -14
11 -23 9 -27 -12 -35 -33 -12 -38 -24 -25 -54 14 -30 29 -25 29 10 0 19 8 28
36 40 46 19 53 16 70 -31 19 -56 18 -60 -18 -72 -18 -6 -68 -25 -111 -41 -54
-21 -79 -27 -82 -19 -2 7 -16 47 -30 91 -14 43 -39 104 -55 135 -16 30 -26 58
-22 61 4 4 41 19 82 34 41 15 89 33 105 40 28 13 31 12 44 -12 7 -14 17 -37
21 -52z m1192 -6 c57 -25 106 -48 110 -51 4 -2 -3 -26 -17 -53 l-25 -49 -40
17 c-29 13 -40 23 -40 39 0 30 -17 38 -29 14 -14 -26 -14 -41 2 -41 28 -1 38
-16 27 -44 -10 -27 -14 -28 -65 -10 -5 2 -15 -8 -22 -22 -10 -21 -9 -26 3 -31
8 -3 21 3 28 13 13 17 15 17 55 0 22 -11 41 -21 41 -23 0 -2 -11 -26 -25 -54
-21 -40 -29 -48 -43 -40 -29 15 -125 59 -165 75 l-38 15 45 83 c24 46 54 111
66 146 13 34 24 62 26 62 2 0 50 -21 106 -46z m-1507 -116 c20 -23 26 -40 23
-63 -3 -25 0 -31 12 -28 10 3 26 -10 43 -34 15 -21 27 -34 27 -28 0 12 29 -27
30 -41 0 -6 -19 -23 -41 -37 -46 -31 -54 -28 -90 29 -11 19 -27 34 -35 34 -24
0 -16 -28 15 -51 48 -35 45 -53 -11 -90 l-51 -32 -18 24 c-9 13 -16 26 -13 30
3 6 -13 33 -80 136 -11 17 -24 30 -27 27 -4 -2 -10 5 -14 16 -3 11 -11 20 -16
20 -20 0 -6 17 39 46 128 84 165 92 207 42z m-279 -162 c19 -19 34 -38 33 -42
0 -5 -13 -20 -30 -32 -21 -17 -33 -21 -42 -14 -8 7 -18 7 -27 2 -12 -7 -10
-12 9 -29 22 -20 22 -20 43 1 19 19 21 19 39 2 23 -21 25 -42 4 -50 -23 -9
-18 -30 11 -49 14 -9 35 -26 46 -37 l20 -20 -42 -39 c-23 -22 -45 -39 -49 -39
-8 0 -41 38 -41 47 0 11 -123 133 -134 133 -12 0 -46 30 -46 41 0 4 30 36 66
70 37 35 72 69 78 76 17 19 25 16 62 -21z m2269 -41 c19 -20 35 -39 35 -44 0
-4 -14 -33 -31 -64 -29 -54 -21 -72 12 -25 7 11 23 29 33 39 20 19 21 18 53
-13 18 -18 33 -37 33 -43 0 -6 -17 -21 -37 -33 -21 -12 -67 -50 -103 -84 -101
-96 -93 -93 -129 -62 -38 31 -39 50 -5 115 30 61 26 72 -10 27 -14 -18 -31
-39 -37 -45 -5 -7 -14 -13 -18 -13 -14 0 -71 63 -65 72 3 5 22 19 42 32 34 22
123 105 165 155 9 12 19 21 22 21 2 0 20 -16 40 -35z m-1010 -20 c478 -82 862
-422 996 -884 10 -35 21 -83 25 -105 3 -22 8 -45 11 -50 11 -17 12 -289 2
-341 -5 -27 -12 -66 -15 -85 -6 -39 -52 -196 -65 -220 -4 -8 -18 -37 -30 -65
-28 -62 -98 -179 -110 -183 -5 -2 -9 -8 -9 -14 0 -30 -181 -210 -279 -278
l-80 -55 -1 -117 c0 -64 -4 -127 -9 -141 -17 -43 -54 -52 -214 -51 -133 0
-150 2 -175 21 l-28 21 -1 -133 c-2 -143 -9 -170 -49 -185 -14 -6 -92 -10
-174 -10 -143 0 -150 1 -177 24 -27 24 -28 26 -30 143 0 65 -2 125 -2 134 -1
16 -3 16 -33 0 -27 -13 -60 -16 -173 -15 -77 1 -148 2 -157 3 -9 1 -29 11 -43
24 -26 22 -27 26 -30 152 -1 72 -3 133 -4 137 0 4 -27 25 -58 46 -99 68 -232
205 -309 318 -95 139 -169 336 -199 529 -7 48 -7 268 0 310 60 336 172 554
388 755 75 70 213 170 234 170 3 0 14 6 22 14 44 38 279 115 411 134 63 10
305 8 365 -3z m-1469 -171 c30 -19 54 -39 54 -45 0 -5 -9 -18 -20 -29 -19 -19
-22 -19 -50 -5 -17 9 -30 12 -29 8 0 -9 96 -71 157 -102 23 -12 42 -26 42 -31
0 -20 -56 -89 -72 -90 -9 0 -23 8 -30 18 -16 23 -158 125 -165 119 -2 -3 7
-14 21 -25 31 -23 31 -30 8 -60 l-18 -23 -57 38 c-31 21 -57 41 -57 46 0 6 51
81 127 185 13 17 27 32 30 32 3 0 30 -16 59 -36z m2719 -94 c25 -24 65 -100
65 -124 0 -10 -12 -30 -27 -45 -44 -43 -171 -114 -203 -113 -66 2 -134 112
-109 179 7 20 73 68 158 114 42 23 84 19 116 -11z m-2879 -228 c13 -9 24 -25
24 -36 0 -15 2 -16 15 -6 12 10 24 10 55 1 21 -6 42 -11 47 -10 19 3 54 -15
50 -25 -3 -6 -12 -30 -22 -53 l-17 -42 -54 20 c-50 19 -74 19 -74 -1 0 -8 37
-20 79 -26 38 -5 41 -16 15 -72 -21 -47 -26 -53 -46 -46 -13 4 -25 10 -28 15
-8 12 -169 79 -192 79 -10 0 -28 5 -38 10 -18 10 -18 13 11 82 16 40 37 83 45
96 29 44 81 50 130 14z m3031 -47 c9 -22 26 -69 40 -103 13 -35 23 -65 21 -67
-8 -7 -82 -35 -93 -35 -8 0 -19 16 -26 37 -10 31 -9 38 5 48 9 7 16 17 16 24
0 14 -2 14 -35 1 -27 -10 -27 -11 -8 -56 2 -7 -10 -16 -27 -22 -28 -10 -31 -9
-43 19 l-12 30 -48 -25 c-26 -14 -54 -26 -61 -26 -16 0 -52 99 -40 110 5 5 25
11 44 14 63 10 136 38 210 81 33 20 40 16 57 -30z m-3052 -269 c79 -19 99 -43
92 -111 -3 -27 -11 -63 -18 -78 -14 -30 -54 -56 -79 -52 -33 6 -106 18 -120
20 -106 13 -138 63 -109 168 6 21 20 48 31 59 18 18 28 20 82 14 33 -3 88 -12
121 -20z m3142 11 c0 -7 3 -25 7 -42 13 -66 15 -81 21 -117 2 -21 6 -43 7 -49
3 -14 -33 -27 -79 -28 -25 -1 -33 3 -34 17 0 9 -2 28 -5 41 -3 16 2 29 17 39
28 19 11 36 -24 23 -23 -9 -25 -13 -17 -40 8 -28 6 -29 -26 -33 -29 -3 -34 -1
-34 17 0 32 -13 44 -43 38 -33 -6 -31 -25 4 -33 16 -4 26 -15 30 -35 11 -48
10 -62 -3 -62 -7 0 -33 -4 -58 -7 l-46 -8 -21 114 c-11 62 -18 116 -14 120 3
4 33 10 66 12 84 7 143 16 183 30 46 16 69 17 69 3z m-3196 -313 c11 -12 21
-38 23 -60 2 -21 4 -42 5 -45 1 -4 21 -4 46 -1 l45 5 0 -60 0 -59 -127 -1
c-71 0 -144 -1 -163 -4 l-35 -4 -3 75 c-6 142 24 183 131 177 41 -2 63 -9 78
-23z m3122 4 l117 0 0 -60 0 -60 -37 6 c-63 11 -214 13 -220 4 -8 -14 4 -21
40 -24 17 -1 37 -3 42 -3 6 -1 10 -13 9 -28 -1 -16 -3 -35 -3 -44 -1 -14 -13
-16 -78 -14 l-78 2 2 99 c0 54 2 107 2 116 1 14 8 16 44 11 23 -3 95 -5 160
-5z m-124 -273 c20 -6 22 -12 17 -37 -3 -17 -6 -39 -6 -50 0 -15 -5 -19 -19
-15 -27 7 -49 -9 -34 -24 18 -18 47 -6 65 29 31 63 48 75 101 69 58 -5 85 -28
90 -77 5 -42 -17 -109 -44 -139 -17 -18 -27 -21 -52 -15 -41 8 -40 6 -32 52 5
31 12 42 31 46 25 7 31 20 13 31 -11 8 -49 -22 -49 -39 -1 -33 -69 -79 -107
-71 -66 13 -92 37 -97 87 -7 69 47 174 83 164 9 -2 27 -7 40 -11z m-2904 -15
c34 -13 64 -80 65 -142 0 -50 -18 -78 -50 -78 -10 0 -25 -3 -33 -6 -11 -4 -19
5 -26 33 -15 53 -14 60 10 66 20 5 23 28 3 34 -21 7 -36 -17 -43 -72 -9 -64
-23 -81 -79 -91 -73 -14 -115 34 -116 131 -1 35 4 69 9 74 6 6 26 12 44 13 33
3 35 1 43 -36 7 -32 5 -42 -7 -48 -20 -12 -19 -38 0 -38 18 0 23 11 29 65 6
56 14 73 45 90 31 17 70 19 106 5z m2415 -820 c44 -24 46 -104 3 -129 -13 -7
-11 -13 11 -34 81 -81 -32 -182 -149 -132 -55 22 -67 86 -24 131 19 20 19 21
-1 44 -53 61 5 143 95 135 24 -2 53 -8 65 -15z m283 2 c15 -7 27 -13 27 -14 0
-2 4 -18 9 -36 8 -27 6 -36 -15 -61 l-24 -29 25 -27 c19 -21 24 -35 20 -61 -2
-19 -7 -39 -11 -45 -10 -17 -70 -39 -106 -39 -40 0 -97 33 -100 57 0 10 -2 25
-3 33 -2 20 15 53 32 63 12 8 11 12 -5 30 -78 84 31 177 151 129z m-2428 -122
l0 -125 38 -3 c34 -3 37 -5 34 -30 l-4 -27 -111 -1 -112 -1 0 29 c0 27 2 28
45 28 l45 0 0 100 0 100 -25 -6 c-51 -13 -59 -10 -61 18 -2 24 1 28 34 33 20
4 41 8 46 9 5 1 23 2 40 2 l31 -1 0 -125z m288 110 c26 -21 40 -71 38 -139 -3
-123 -47 -168 -161 -162 -39 2 -52 15 -45 43 6 23 9 25 42 18 56 -13 93 9 93
56 0 8 -6 11 -15 8 -8 -4 -35 -3 -58 0 -48 7 -77 42 -77 91 0 36 27 84 53 95
40 16 103 11 130 -10z"/>
<path d="M2822 4004 c-12 -48 -20 -90 -17 -92 16 -16 35 16 50 82 20 89 20 90
2 94 -9 2 -20 -23 -35 -84z"/>
<path d="M1560 3868 c0 -7 7 -22 15 -32 20 -26 46 -6 29 22 -14 21 -44 28 -44
10z"/>
<path d="M2345 3612 c-22 -2 -43 -6 -47 -10 -3 -4 -9 -34 -12 -68 l-6 -61 167
2 c93 1 189 5 214 9 43 7 48 11 63 48 8 23 13 44 11 48 -14 22 -261 42 -390
32z"/>
<path d="M2160 3576 c-115 -36 -158 -53 -230 -93 -145 -81 -199 -136 -97 -102
35 12 89 18 167 20 121 2 179 16 226 54 21 17 26 31 31 83 7 72 11 71 -97 38z"/>
<path d="M2757 3553 c-2 -10 -8 -25 -11 -33 -5 -13 9 -15 95 -17 55 0 97 3 92
8 -10 10 -139 59 -157 59 -8 0 -16 -8 -19 -17z"/>
<path d="M2733 3464 c-12 -8 -16 -25 -14 -60 4 -95 4 -110 -4 -184 -13 -131
-13 -131 28 -119 17 5 126 8 240 7 167 -2 209 0 216 11 5 7 7 61 5 120 -4 119
6 102 -117 188 l-69 47 -135 1 c-89 1 -140 -3 -150 -11z"/>
<path d="M2441 3452 c-93 -1 -170 -7 -177 -13 -17 -14 -33 -90 -39 -194 -4
-49 -10 -103 -14 -120 -4 -16 -7 -43 -7 -60 l1 -29 153 1 c94 1 158 5 166 12
7 6 41 15 74 19 34 5 64 11 67 14 13 13 27 133 29 251 l3 128 -46 -3 c-25 -2
-120 -4 -210 -6z"/>
<path d="M2177 3399 c-36 -14 -79 -20 -165 -23 -107 -3 -204 -21 -240 -45 -11
-7 -37 -106 -66 -256 -2 -11 -13 -44 -25 -73 -12 -29 -21 -55 -21 -58 0 -4 17
-3 38 1 70 13 111 18 272 30 66 5 97 13 142 37 32 16 58 31 58 33 0 1 5 27 10
56 6 30 13 90 15 134 6 101 12 142 25 166 6 10 9 19 8 18 -2 0 -25 -9 -51 -20z"/>
<path d="M1700 3313 c-24 -9 -113 -107 -168 -186 -19 -26 -54 -86 -78 -134
-45 -89 -45 -108 1 -98 11 2 40 6 65 9 65 8 102 20 110 37 24 49 98 324 100
372 0 8 -8 8 -30 0z"/>
<path d="M3232 3217 l2 -97 35 7 c20 4 56 6 79 5 l44 -2 -33 42 c-18 24 -55
66 -81 93 l-48 50 2 -98z"/>
<path d="M3248 3097 c-39 -8 -48 -13 -49 -31 0 -11 -3 -30 -5 -41 -6 -27 -6
-93 0 -103 9 -16 19 -107 19 -184 0 -73 1 -76 21 -68 12 4 93 6 180 3 l159 -4
-7 49 c-3 28 -20 88 -36 134 -30 81 -109 247 -120 249 -27 5 -124 3 -162 -4z"/>
<path d="M2797 3084 c-1 -1 -18 -5 -38 -8 -86 -13 -90 -23 -94 -212 l-3 -154
59 0 59 0 0 38 c0 20 9 55 19 77 64 139 238 178 344 77 l28 -27 -6 60 c-4 33
-2 78 3 101 l9 40 -106 3 c-207 6 -272 7 -274 5z"/>
<path d="M2590 3041 c-25 -4 -55 -12 -67 -19 -14 -8 -77 -12 -187 -12 l-165 0
-19 -52 c-18 -50 -38 -152 -34 -172 2 -4 3 -23 4 -42 1 -34 2 -34 48 -34 l47
0 6 49 c23 196 248 268 380 122 l35 -39 0 83 c0 45 5 92 11 104 13 23 16 23
-59 12z"/>
<path d="M2119 2985 c-8 -9 -44 -21 -80 -29 -52 -10 -60 -14 -41 -20 13 -5 42
-26 63 -47 30 -30 39 -35 39 -21 0 11 8 44 19 75 10 32 18 57 17 57 -1 0 -9
-7 -17 -15z"/>
<path d="M1693 2917 c-44 -10 -49 -18 -60 -96 -3 -19 -20 -75 -38 -125 -18
-50 -36 -122 -40 -159 l-7 -67 23 8 c13 5 53 10 89 11 36 2 83 4 105 4 36 2
40 5 40 27 0 17 -10 32 -32 48 -53 37 -86 103 -85 172 0 69 21 119 69 160 l34
30 -28 -2 c-15 -1 -47 -6 -70 -11z"/>
<path d="M1585 2889 c-16 -5 -64 -12 -105 -15 -41 -4 -78 -9 -82 -13 -8 -7
-43 -146 -53 -210 -4 -25 -9 -89 -10 -143 l-2 -98 31 0 c44 0 120 27 141 50
11 12 19 42 22 77 3 31 21 102 40 157 19 56 36 112 39 126 2 14 7 37 10 53 3
15 4 27 2 26 -2 0 -16 -5 -33 -10z"/>
<path d="M1848 2858 c-39 -19 -69 -63 -74 -107 -5 -51 27 -99 82 -126 l41 -20
0 -686 c0 -377 3 -691 7 -698 6 -9 11 -9 22 0 17 14 17 109 0 109 -6 0 -6 4 2
9 8 4 13 11 13 15 -1 3 2 6 7 6 4 0 9 -32 12 -72 4 -57 8 -73 21 -74 11 -1 15
8 15 27 0 16 -4 29 -10 29 -7 0 -8 3 -1 8 12 9 16 52 4 52 -5 0 -9 5 -9 11 0
5 5 7 12 3 8 -5 9 -2 5 10 -5 12 -3 16 5 13 7 -2 12 -15 12 -28 -1 -13 4 -27
10 -31 8 -6 7 -11 -3 -17 -10 -6 -10 -10 -1 -16 9 -6 9 -10 -1 -16 -12 -7 -12
-9 0 -9 11 0 11 -3 1 -15 -10 -13 -9 -15 9 -15 20 0 21 5 21 76 0 47 4 73 10
69 6 -3 10 -39 10 -80 0 -67 2 -73 19 -68 21 5 25 42 6 55 -7 5 -6 8 2 8 6 0
10 8 8 18 -1 9 -8 16 -15 14 -6 -1 -9 2 -5 8 3 6 11 8 16 5 5 -4 9 -1 9 4 0 6
-5 11 -10 11 -6 0 -5 6 2 14 18 19 28 11 22 -19 -6 -31 4 -33 16 -2 6 16 9 17
9 5 1 -9 -4 -20 -9 -23 -6 -4 -8 -10 -5 -15 3 -5 1 -11 -5 -15 -5 -3 -10 -11
-10 -17 0 -6 7 -5 18 3 15 13 16 12 3 -4 -7 -9 -10 -17 -6 -17 4 0 1 -8 -6
-18 -7 -9 -9 -14 -5 -10 5 4 15 3 23 -3 16 -14 14 -55 14 371 0 190 2 352 5
360 3 12 20 15 77 14 40 0 77 -3 82 -6 6 -4 10 -182 10 -477 0 -259 3 -471 7
-471 5 0 8 -5 8 -11 0 -5 -4 -8 -9 -5 -5 3 -8 -5 -8 -19 0 -16 4 -22 11 -18 6
4 5 -1 -3 -10 -12 -15 -11 -17 8 -17 23 0 28 19 9 39 -10 11 -10 13 0 7 9 -5
12 6 12 43 0 28 5 51 10 51 6 0 10 -30 10 -70 0 -61 2 -70 18 -70 15 0 19 9
19 50 1 28 -2 48 -6 46 -4 -3 -7 4 -7 14 0 10 4 16 8 14 4 -3 8 0 8 6 0 6 4 8
10 5 5 -3 8 -35 6 -70 -3 -58 -2 -63 16 -62 17 1 19 8 18 52 -2 75 -1 87 10
80 6 -3 10 -35 10 -71 0 -56 2 -64 19 -64 17 0 19 7 16 58 -3 67 3 86 25 72 8
-6 10 -10 4 -10 -6 0 -11 -7 -11 -15 0 -10 6 -14 16 -10 12 4 11 2 -2 -9 -11
-8 -14 -17 -8 -20 9 -6 8 -37 -3 -54 -2 -4 3 -8 12 -9 16 -1 17 23 17 308 l0
309 -117 0 c-112 0 -118 1 -118 20 0 20 6 21 116 19 96 -1 114 -3 110 -16 -3
-8 -2 -12 2 -9 4 2 7 89 7 193 -1 103 2 193 6 198 7 10 155 13 164 4 2 -3 5
-172 6 -376 1 -282 4 -371 13 -367 13 5 16 101 3 121 -5 7 0 16 13 23 19 10
20 8 21 -67 0 -53 3 -72 9 -58 8 19 9 18 9 -4 1 -28 10 -24 16 7 2 12 -1 24
-6 28 -6 3 -6 11 -1 17 10 15 10 27 -2 46 -7 10 -6 12 4 6 10 -6 12 -4 7 8 -3
9 -2 19 3 22 10 6 14 -14 10 -49 -1 -12 3 -16 10 -11 9 6 9 2 1 -13 -13 -25
-14 -35 -3 -28 5 3 9 -1 9 -9 0 -8 -4 -12 -9 -9 -4 3 -8 -3 -8 -12 0 -10 3
-14 7 -11 3 4 12 2 20 -4 11 -9 13 3 13 72 0 60 3 80 11 72 6 -6 11 -31 11
-57 0 -32 3 -44 11 -40 8 5 8 2 0 -7 -15 -16 -17 -43 -3 -34 6 3 10 1 10 -6 0
-7 3 -9 7 -5 4 4 8 38 8 76 1 39 5 73 8 77 8 7 10 -10 8 -85 -1 -61 3 -74 24
-65 13 4 15 98 15 697 l0 691 39 16 c46 20 71 54 78 109 8 56 -31 114 -87 131
-131 40 -227 -116 -130 -212 l28 -29 -220 0 -220 0 31 32 c98 100 -5 256 -137
206 -66 -25 -102 -111 -71 -171 6 -12 23 -32 38 -44 l26 -22 -214 -1 -213 0
30 28 c80 75 38 208 -69 218 -24 2 -56 -1 -71 -8z m112 -62 c12 -14 23 -36 23
-50 0 -89 -122 -112 -154 -29 -29 77 74 139 131 79z m535 -1 c35 -35 33 -76
-6 -109 -45 -38 -86 -32 -118 17 -50 77 59 158 124 92z m560 0 c52 -51 15
-135 -59 -135 -42 0 -76 37 -76 82 0 39 40 78 80 78 19 0 40 -9 55 -25z m-65
-469 l0 -23 -537 1 c-471 1 -538 3 -539 16 0 8 1 18 3 22 2 4 244 7 538 7
l535 0 0 -23z m0 -81 c0 -20 -4 -20 -537 -20 -471 0 -538 2 -538 15 -1 8 2 17
6 20 4 3 246 5 538 5 526 0 531 0 531 -20z m-847 -437 c-4 -22 -7 -23 -111
-20 -100 3 -129 12 -116 34 3 4 56 8 118 8 112 0 113 0 109 -22z m845 0 c-3
-21 -7 -22 -106 -21 -57 0 -105 3 -108 5 -2 3 -2 13 2 22 5 13 23 16 111 16
102 0 104 -1 101 -22z m-848 -80 c0 -16 -12 -18 -109 -18 -84 0 -110 3 -114
14 -3 8 -4 16 -2 18 2 2 53 3 114 3 99 0 111 -2 111 -17z m850 0 c0 -16 -11
-18 -110 -18 -85 0 -110 3 -110 13 0 8 2 16 4 18 2 2 52 4 110 4 95 1 106 -1
106 -17z m-417 -224 c3 -3 3 -12 0 -20 -4 -11 -30 -14 -114 -14 -102 0 -109 1
-109 20 0 19 7 20 108 20 60 0 111 -3 115 -6z m-440 -43 c14 -1 16 -5 8 -18
-8 -16 -23 -18 -113 -16 -128 2 -118 1 -115 16 2 14 60 23 142 20 33 -1 68 -2
78 -2z m857 -17 c0 -19 -5 -20 -102 -18 -124 2 -118 1 -118 18 0 16 43 21 163
21 51 0 57 -2 57 -21z m-47 -99 c4 -8 3 -16 -1 -19 -4 -3 -9 4 -9 15 -2 23 3
25 10 4z m-116 -47 c-3 -8 -6 -5 -6 6 -1 11 2 17 5 13 3 -3 4 -12 1 -19z m160
-60 c-3 -8 -6 -5 -6 6 -1 11 2 17 5 13 3 -3 4 -12 1 -19z"/>
<path d="M3223 2643 c-34 -7 -62 -48 -58 -86 3 -18 7 -54 9 -82 3 -27 10 -75
15 -105 10 -61 8 -196 -3 -222 -7 -14 4 -16 104 -13 62 1 138 -3 172 -10 l60
-13 14 33 c7 18 18 53 23 77 5 23 13 57 16 73 11 47 15 319 6 334 -7 10 -46
14 -172 16 -90 1 -174 0 -186 -2z"/>
<path d="M3111 2551 c-11 -7 -13 -53 -13 -225 0 -120 2 -219 5 -222 13 -14 47
20 57 57 13 46 12 192 -2 228 -7 20 -13 71 -17 154 -1 19 -9 21 -30 8z"/>
<path d="M1639 2460 c-94 -7 -126 -25 -134 -77 -4 -21 -17 -83 -28 -138 -26
-120 -30 -247 -9 -292 8 -17 20 -30 26 -28 6 2 51 6 100 10 49 3 105 8 125 11
20 3 44 6 53 8 10 1 21 6 25 10 4 4 8 119 9 255 l1 248 -46 -1 c-25 0 -80 -3
-122 -6z"/>
<path d="M1450 2401 c-12 -7 -72 -19 -103 -21 -11 0 -2 -79 18 -160 17 -66 55
-180 61 -180 1 0 3 21 3 48 0 26 3 58 5 72 14 64 36 179 41 213 5 38 1 43 -25
28z"/>
<path d="M3190 2101 c-37 -10 -47 -85 -26 -197 2 -11 7 -46 10 -79 4 -33 10
-80 13 -105 4 -25 6 -50 5 -57 -6 -30 23 -20 67 24 81 81 160 192 212 297 49
100 49 101 26 110 -26 10 -272 16 -307 7z"/>
<path d="M3104 2065 c-7 -17 -11 -505 -5 -505 3 0 20 10 38 23 33 22 34 23 28
82 -3 33 -7 74 -10 90 -9 65 -26 208 -29 250 -1 11 1 32 5 48 6 20 4 27 -7 27
-8 0 -17 -7 -20 -15z"/>
<path d="M1757 1924 c-2 -2 -85 -11 -187 -20 -36 -4 -66 -7 -67 -8 -5 -5 85
-126 123 -168 48 -52 141 -136 164 -148 15 -8 16 7 17 170 l0 180 -24 -2 c-13
-2 -25 -3 -26 -4z"/>
<path d="M3840 3373 c0 -4 -17 -16 -38 -26 -59 -28 -99 -64 -87 -76 14 -14
168 75 162 92 -4 14 -37 23 -37 10z"/>
<path d="M937 3133 c-13 -12 -7 -21 23 -32 28 -9 30 -8 30 15 0 18 -5 24 -23
24 -13 0 -27 -3 -30 -7z"/>
<path d="M840 2816 c0 -18 9 -23 55 -29 17 -3 47 -8 67 -12 21 -4 45 -4 54 -1
27 10 -1 33 -49 39 -23 4 -61 9 -84 13 -36 5 -43 3 -43 -10z"/>
<path d="M825 2517 c-29 -16 -15 -27 35 -27 50 0 61 8 37 28 -15 12 -50 12
-72 -1z"/>
<path d="M3368 1462 c-28 -6 -24 -56 6 -70 19 -9 27 -7 38 6 30 36 3 75 -44
64z"/>
<path d="M3364 1322 c-16 -10 -25 -45 -16 -60 13 -19 50 -23 67 -6 19 20 19
39 -1 58 -17 17 -33 20 -50 8z"/>
<path d="M3659 1462 c-22 -4 -30 -37 -15 -55 20 -25 45 -27 60 -6 26 37 0 71
-45 61z"/>
<path d="M3640 1310 c-21 -39 6 -72 52 -62 26 5 33 40 12 63 -22 25 -50 24
-64 -1z"/>
<path d="M1502 1448 c-7 -7 -12 -24 -12 -38 0 -32 17 -50 46 -50 28 0 39 17
35 50 -6 46 -41 66 -69 38z"/>
</g>
</svg>
